<?xml version="1.0" standalone="no"?>
<!DOCTYPE svg PUBLIC "-//W3C//DTD SVG 20010904//EN"
 "http://www.w3.org/TR/2001/REC-SVG-20010904/DTD/svg10.dtd">
<svg version="1.0" xmlns="http://www.w3.org/2000/svg"
 width="512.000000pt" height="512.000000pt" viewBox="0 0 512.000000 512.000000"
 preserveAspectRatio="xMidYMid meet">
<metadata>
Created by potrace 1.14, written by Peter Selinger 2001-2017
</metadata>
<g transform="translate(0.000000,512.000000) scale(0.100000,-0.100000)"
fill="#000000" stroke="none">
<path d="M0 2560 l0 -2560 2560 0 2560 0 0 2560 0 2560 -2560 0 -2560 0 0
-2560z m2825 1654 c105 -25 201 -48 215 -51 22 -5 22 -7 5 -10 -64 -11 -127
-27 -131 -34 -2 -4 4 -13 15 -18 14 -8 35 -6 82 9 52 17 65 18 78 7 17 -14 17
-14 78 -3 35 6 85 -3 290 -54 136 -34 260 -68 274 -75 38 -20 98 -91 121 -142
22 -51 24 -129 12 -483 -7 -219 -15 -249 -69 -281 l-36 -22 31 -19 c45 -27 61
-73 55 -160 -2 -40 -7 -161 -11 -268 -5 -159 -10 -205 -26 -248 -24 -65 -66
-114 -125 -148 -61 -36 -385 -174 -395 -168 -12 7 -10 44 2 44 17 0 11 25 -9
37 -17 10 -21 8 -31 -17 -12 -29 -33 -44 -69 -49 -5 0 -12 -16 -15 -34 -9 -49
-38 -71 -161 -123 -176 -74 -215 -86 -222 -69 -3 8 -9 15 -15 15 -5 0 -7 -4
-4 -9 3 -5 0 -8 -7 -8 -11 1 -43 -4 -113 -18 -11 -3 -33 -16 -48 -30 -22 -20
-42 -27 -93 -32 -64 -6 -70 -23 -9 -23 16 0 27 -3 24 -6 -4 -3 -32 -2 -63 1
-42 6 -55 11 -51 21 3 8 1 14 -3 14 -5 0 -11 -6 -13 -12 -5 -14 -161 59 -341
158 -121 67 -144 86 -158 134 -9 31 -15 36 -34 32 -15 -2 -30 4 -45 20 l-22
23 4 -32 c3 -18 2 -33 0 -33 -16 0 -380 197 -406 221 -54 47 -96 138 -102 216
-9 147 -11 488 -2 519 5 21 21 40 44 55 l35 21 -30 19 c-57 34 -65 59 -73 218
-3 80 -7 225 -8 322 -2 193 6 229 62 301 44 57 111 82 368 138 190 42 245 51
289 46 49 -6 57 -4 80 18 22 21 62 33 231 70 271 59 303 59 545 0z m515 -2830
c86 -35 150 -145 150 -259 0 -169 -105 -285 -258 -285 -93 0 -140 17 -194 71
-96 95 -106 265 -23 391 26 39 95 85 148 99 43 11 128 3 177 -17z m-2060 -89
l0 -105 55 -1 c30 0 76 -1 103 -1 l47 -1 3 107 3 106 59 0 60 0 -2 -277 -3
-278 -55 -1 -55 -1 -5 116 -5 116 -100 0 -100 0 -3 -117 -3 -118 -59 0 -60 0
0 280 0 280 60 0 60 0 0 -105z m550 -175 l0 -280 -60 0 -60 0 -1 193 c0 105 0
228 -1 272 0 44 1 83 1 88 1 4 28 7 61 7 l60 0 0 -280z m478 228 l-3 -53 -72
-3 c-67 -3 -73 -5 -74 -25 -1 -12 -2 -112 -3 -222 l-1 -200 -62 -3 -63 -3 0
226 0 225 -75 0 -75 0 0 55 0 55 216 0 215 0 -3 -52z m475 41 c117 -32 152
-161 60 -223 -31 -22 -33 -25 -15 -30 32 -10 71 -55 82 -94 22 -83 -41 -170
-139 -191 -53 -11 -228 -15 -253 -6 -10 4 -13 53 -11 243 2 322 0 300 21 305
35 9 218 7 255 -4z m900 -86 l45 -97 16 39 c9 21 28 65 43 97 l26 58 69 0 c83
0 84 13 -12 -151 l-70 -120 80 -138 c44 -76 80 -140 80 -143 0 -2 -32 -5 -70
-6 l-70 -3 -48 100 c-44 93 -62 119 -62 89 0 -7 -18 -51 -40 -98 l-40 -85 -70
-2 c-38 -1 -70 0 -70 2 0 2 34 63 76 137 42 73 77 138 77 143 0 6 -32 66 -72
135 -39 69 -71 128 -71 132 0 5 31 8 68 8 l69 0 46 -97z m-1743 -669 c5 -5 6
-21 3 -35 -4 -24 -7 -25 -80 -25 -72 1 -76 0 -104 -32 -33 -37 -39 -94 -14
-142 19 -37 43 -50 94 -50 l41 0 0 40 c0 38 -2 40 -30 40 -27 0 -30 3 -30 30
l0 30 70 0 70 0 0 -94 c0 -64 -4 -97 -12 -102 -7 -4 -48 -10 -93 -12 -70 -3
-86 -1 -124 20 -84 45 -115 153 -70 244 20 43 63 77 117 95 32 10 150 5 162
-7z m307 4 c7 -12 94 -283 108 -335 5 -21 2 -23 -39 -23 -45 0 -45 1 -57 43
-6 23 -15 44 -19 47 -5 3 -29 4 -55 2 -45 -4 -46 -5 -57 -48 -12 -43 -13 -44
-56 -44 -37 0 -43 3 -38 18 3 9 16 53 30 97 13 44 36 119 51 168 l26 87 49 0
c28 0 52 -5 57 -12z m347 -98 c16 -58 31 -112 33 -120 3 -8 19 35 37 95 18 61
35 116 40 123 4 7 28 12 56 12 48 0 49 -1 54 -32 3 -18 8 -102 12 -185 l6
-153 -40 0 -39 0 -8 133 c-4 72 -9 128 -11 122 -1 -5 -19 -63 -39 -127 l-36
-118 -33 0 -34 0 -32 118 c-17 64 -33 122 -34 127 -2 6 -6 -50 -10 -122 l-8
-133 -40 0 -40 0 6 53 c3 28 8 108 12 177 4 69 9 129 11 133 3 4 28 7 56 5
l52 -3 29 -105z m556 75 l0 -35 -70 0 -70 0 0 -40 0 -40 66 0 65 0 -3 -32 c-2
-18 -9 -34 -15 -34 -7 -1 -35 -2 -63 -3 l-50 -1 0 -40 0 -40 75 0 75 0 0 -35
0 -35 -115 0 -115 0 0 185 0 185 110 0 110 0 0 -35z m294 25 c23 -8 24 -12 15
-39 -10 -29 -12 -30 -60 -24 -51 6 -79 -6 -79 -34 0 -7 29 -27 64 -42 72 -33
96 -60 96 -111 0 -69 -53 -110 -144 -110 -30 0 -66 4 -79 9 -22 9 -24 14 -18
43 5 22 12 32 22 29 8 -3 36 -7 63 -9 39 -3 52 0 62 13 19 26 6 44 -51 70 -71
31 -95 57 -95 101 0 46 14 71 53 94 35 22 109 26 151 10z"/>
<path d="M2072 4152 c-7 -5 7 -13 40 -21 29 -7 80 -25 113 -41 33 -15 109 -40
170 -55 93 -24 122 -27 195 -22 73 6 275 49 289 62 17 17 -23 14 -121 -11
-155 -39 -231 -38 -374 4 -63 18 -120 29 -130 25 -12 -4 -15 -3 -10 5 4 7 1
12 -8 12 -9 0 -16 4 -16 9 0 11 -85 41 -114 41 -12 0 -27 -4 -34 -8z"/>
<path d="M3060 4112 c0 -5 -12 -12 -28 -15 -15 -3 -38 -15 -51 -26 -13 -12
-43 -26 -65 -32 -23 -5 -61 -16 -86 -23 -42 -13 -43 -13 -10 -11 19 1 48 8 63
14 35 14 40 14 31 0 -4 -8 1 -9 17 -4 34 11 81 42 77 51 -2 4 17 13 41 19 39
9 42 12 27 24 -9 7 -16 9 -16 3z"/>
<path d="M2885 4100 c3 -5 11 -10 16 -10 6 0 7 5 4 10 -3 6 -11 10 -16 10 -6
0 -7 -4 -4 -10z"/>
<path d="M3000 4040 c-13 -9 -13 -10 0 -10 13 0 13 -1 0 -10 -24 -15 -6 -20
31 -10 18 6 47 10 64 11 29 1 29 2 -10 14 -49 17 -66 17 -85 5z"/>
<path d="M2702 3960 c-8 -14 -8 -21 2 -29 22 -19 282 -84 381 -96 44 -5 134
-32 149 -44 35 -29 44 -152 17 -224 -9 -23 -14 -26 -30 -18 -16 9 -19 6 -25
-27 -3 -20 -6 -91 -6 -157 0 -66 -5 -127 -10 -135 -7 -11 -10 -3 -11 30 -1 40
-2 42 -8 15 -6 -26 -7 -27 -13 -9 -5 20 -9 20 -74 12 -89 -10 -273 -30 -299
-31 -11 -1 -28 -10 -37 -22 -15 -19 -17 -19 -23 -2 -13 32 0 125 21 149 l19
22 -25 -15 c-13 -9 -38 -33 -55 -53 l-30 -38 0 -251 c0 -139 2 -277 5 -308 l4
-56 46 12 c25 7 58 18 74 24 16 6 31 10 33 8 2 -2 -30 -17 -71 -33 -79 -30
-90 -50 -23 -41 27 4 36 2 26 -4 -7 -5 -22 -9 -33 -9 -16 0 -17 -2 -5 -17 12
-15 12 -16 -6 -11 -35 10 -40 10 -57 9 -19 -1 -26 -49 -9 -66 5 -6 11 -104 13
-220 4 -179 8 -216 23 -248 l19 -38 15 28 15 28 8 -32 c5 -18 12 -33 16 -33 4
1 34 17 67 36 74 43 157 82 187 88 45 8 108 31 108 39 0 5 5 5 11 2 5 -4 19 1
30 11 16 15 19 31 19 117 0 115 9 124 16 16 5 -73 14 -108 14 -53 0 22 3 26
10 14 14 -21 13 27 -1 67 -6 19 -7 43 -1 64 8 33 9 32 16 -26 8 -70 35 -175
46 -175 4 0 19 11 33 24 39 36 84 66 99 66 8 0 24 9 36 20 12 11 24 20 28 20
3 0 26 20 50 44 50 51 89 126 103 199 15 76 33 266 26 276 -3 5 1 12 7 15 33
15 -67 -7 -152 -34 -52 -16 -99 -30 -105 -30 -16 1 34 27 118 61 45 18 74 35
67 39 -8 5 -7 9 5 14 9 3 14 10 11 15 -4 5 -1 11 6 14 7 2 4 2 -7 -1 -11 -3
-41 -6 -67 -6 -25 -1 -44 -4 -42 -8 2 -3 -25 -16 -61 -28 -36 -12 -67 -26 -70
-31 -10 -15 10 -11 97 21 45 17 87 30 92 30 6 -1 -47 -23 -118 -51 -72 -27
-138 -57 -147 -65 -19 -17 -46 -89 -52 -139 -3 -25 -5 -27 -11 -12 -19 41 51
197 87 197 7 0 26 11 42 25 l30 24 -25 1 -25 2 25 8 c34 11 244 96 286 116 29
14 34 21 34 51 0 30 -2 34 -15 23 -13 -11 -15 -8 -15 14 0 39 -23 77 -68 113
-32 26 -53 34 -123 43 -46 6 -86 14 -88 16 -3 3 -10 -5 -16 -17 -10 -17 -13
-1 -18 92 -4 63 -7 161 -7 219 -1 58 -5 125 -10 150 -5 27 -5 49 1 55 6 6 9 6
9 0 0 -20 161 -3 286 29 48 12 114 11 114 -3 0 -3 23 -6 50 -7 47 -1 50 1 44
20 -3 12 -15 33 -25 49 -11 15 -18 31 -15 36 3 4 -11 15 -30 25 -34 16 -36 16
-52 -4 -12 -14 -80 -39 -214 -80 l-198 -60 -67 16 c-38 9 -81 22 -98 30 -25
11 -294 89 -371 106 -13 4 -25 -1 -32 -12z m526 -550 c0 -64 -1 -64 -9 -20
-11 63 -10 132 1 105 5 -11 8 -49 8 -85z m-43 -428 c-12 -94 -40 -141 -98
-167 l-29 -12 46 -21 c48 -23 66 -46 66 -83 0 -20 -2 -21 -12 -7 -24 30 -51
27 -143 -12 -129 -56 -289 -119 -292 -116 -10 9 48 37 182 86 77 29 157 61
179 71 21 10 44 16 50 13 6 -3 2 2 -9 11 -23 18 -44 15 -164 -26 -46 -16 -86
-27 -88 -26 -2 2 28 16 67 31 40 16 67 32 64 38 -4 6 2 8 16 3 20 -6 21 -5 9
7 -7 8 -23 13 -34 11 -11 -2 4 8 34 22 29 14 57 25 60 25 4 0 19 12 33 28 31
33 48 88 48 162 1 44 3 51 11 37 7 -12 8 -40 4 -75z m34 73 c1 16 3 17 11 5 6
-9 5 -17 -2 -21 -13 -8 6 -72 28 -89 7 -7 14 -17 14 -23 0 -26 -49 39 -59 78
-13 51 -13 79 -1 50 l9 -20 0 20z m-259 -285 c-8 -5 -19 -10 -25 -10 -5 0 -3
5 5 10 8 5 20 10 25 10 6 0 3 -5 -5 -10z"/>
<path d="M2230 3939 c-63 -16 -173 -46 -243 -65 -93 -26 -139 -34 -164 -29
-19 3 -33 2 -30 -2 3 -5 -3 -33 -13 -63 -15 -42 -20 -86 -21 -190 -1 -118 -14
-275 -18 -212 -2 45 -19 62 -60 62 -28 0 -43 -7 -60 -26 -29 -34 -61 -91 -61
-110 0 -8 -11 -37 -25 -64 -14 -27 -25 -66 -25 -85 0 -20 -5 -45 -10 -56 -10
-17 1 -25 115 -81 84 -41 124 -66 121 -75 -4 -9 4 -13 24 -13 27 0 41 10 47
35 1 6 10 33 18 60 15 49 15 49 11 10 -2 -22 -7 -49 -10 -60 -4 -11 0 -6 8 10
8 17 15 41 16 54 0 13 2 22 5 19 9 -9 13 -328 4 -322 -5 3 -10 -25 -10 -63
l-2 -68 -7 70 c-10 87 -33 152 -66 186 -14 15 -25 31 -24 36 2 10 -7 15 -83
48 -32 15 -64 24 -70 22 -7 -2 12 -14 41 -27 29 -12 51 -25 48 -27 -2 -2 -21
3 -42 12 -21 8 -44 13 -51 11 -7 -3 -26 0 -43 6 -47 16 -46 4 2 -26 39 -24 31
-27 -20 -8 -11 4 -12 -7 -7 -54 16 -139 65 -249 197 -441 15 -23 38 -72 49
-110 l21 -68 24 70 c17 50 24 95 25 155 1 75 2 80 9 40 21 -116 27 -91 34 141
5 129 8 239 7 244 0 6 -5 55 -10 110 -6 55 -10 159 -11 231 0 72 -3 159 -6
192 -13 116 -24 50 -24 -135 0 -103 -2 -184 -4 -182 -2 2 -6 96 -9 209 -3 138
-9 215 -18 235 -21 49 -18 183 6 230 17 34 27 41 70 52 28 7 93 14 145 14 121
2 400 58 400 81 0 5 -10 6 -22 2 -22 -6 -22 -6 -5 13 37 42 -13 43 -173 2z"/>
<path d="M2685 3912 c6 -5 24 -12 40 -16 34 -7 15 7 -25 19 -16 5 -22 4 -15
-3z"/>
<path d="M1946 3771 c-3 -5 0 -8 7 -7 19 2 342 -106 345 -115 2 -5 14 -9 27
-9 13 0 35 -12 48 -26 24 -26 26 -26 142 -22 103 4 119 7 134 25 23 29 263 95
362 99 95 4 137 18 119 39 -7 8 -20 15 -29 15 -9 0 -117 -30 -241 -67 l-225
-67 -125 0 -125 0 -204 72 c-208 74 -226 78 -235 63z"/>
<path d="M2432 3384 c-10 -11 -12 -69 -6 -282 4 -148 3 -299 -1 -336 -6 -58
-10 -69 -31 -78 -32 -15 -23 -25 39 -43 61 -17 148 -8 175 19 16 16 15 17 -10
7 -15 -6 -27 -7 -26 -3 0 4 -6 23 -14 42 -13 29 -16 87 -17 330 l-2 295 -27
26 c-34 34 -63 42 -80 23z m95 -361 c-2 -21 -4 -6 -4 32 0 39 2 55 4 38 2 -18
2 -50 0 -70z"/>
<path d="M1906 3349 c-12 -60 -7 -422 7 -449 14 -28 106 -80 272 -152 108 -47
142 -53 96 -19 -20 15 -23 26 -22 67 0 27 -6 72 -13 99 -8 28 -17 76 -21 107
-3 32 -11 60 -16 64 -5 3 -7 9 -4 14 3 4 -1 23 -9 41 -8 19 -14 36 -14 39 -1
17 -16 39 -23 34 -5 -3 -9 2 -9 11 0 8 -7 18 -15 21 -8 4 -12 11 -8 18 3 6 3
8 -1 4 -4 -3 -28 9 -53 28 -54 41 -115 74 -140 75 -11 0 -13 3 -5 6 6 2 10 9
6 14 -10 17 -22 9 -28 -22z"/>
<path d="M2283 3260 c0 -25 2 -35 4 -22 2 12 2 32 0 45 -2 12 -4 2 -4 -23z"/>
<path d="M2283 3095 c0 -44 2 -61 4 -37 2 23 2 59 0 80 -2 20 -4 1 -4 -43z"/>
<path d="M1677 2959 c7 -7 15 -10 18 -7 3 3 -2 9 -12 12 -14 6 -15 5 -6 -5z"/>
<path d="M1567 2949 c7 -7 15 -10 18 -7 3 3 -2 9 -12 12 -14 6 -15 5 -6 -5z"/>
<path d="M1950 2820 c5 -10 22 -21 37 -25 15 -3 38 -15 52 -25 47 -33 236
-123 279 -133 32 -7 27 9 -8 23 -17 7 -29 15 -26 17 2 2 20 -3 40 -11 20 -8
34 -11 31 -6 -3 5 -22 14 -43 20 -20 7 -59 23 -87 36 -27 13 -103 46 -167 73
-90 37 -115 45 -108 31z"/>
<path d="M1933 2805 c0 -8 4 -15 9 -15 4 0 8 4 8 9 0 6 -4 12 -8 15 -5 3 -9
-1 -9 -9z"/>
<path d="M1923 2748 c-16 -27 -17 -49 -18 -274 0 -252 1 -257 58 -270 17 -3
37 -13 45 -20 7 -8 21 -14 29 -14 9 0 13 -3 9 -7 -3 -4 13 -12 36 -19 24 -6
69 -21 102 -33 32 -12 65 -20 72 -17 10 4 14 26 14 79 0 41 3 143 7 228 l8
154 11 -130 11 -130 1 118 c2 111 3 117 22 117 36 0 77 -28 88 -59 6 -17 11
-123 12 -243 0 -233 8 -278 46 -278 14 0 32 12 46 33 22 31 23 41 28 265 l5
234 32 28 c18 16 29 31 25 33 -6 4 -59 16 -140 33 -15 3 -21 1 -17 -6 4 -6
-13 -10 -48 -10 -46 0 -55 3 -60 20 -3 11 -17 24 -31 29 -14 6 -42 21 -63 34
-48 29 -174 85 -233 103 -56 17 -87 18 -97 2z"/>
<path d="M1866 2374 c-4 -14 -5 -28 -3 -31 3 -2 8 8 11 23 4 14 5 28 3 31 -3
2 -8 -8 -11 -23z"/>
<path d="M3706 2257 c-11 -7 -29 -21 -40 -31 -17 -15 -12 -14 22 4 23 13 42
27 42 32 0 10 0 10 -24 -5z"/>
<path d="M3174 1295 c-94 -48 -111 -240 -29 -322 44 -44 107 -47 154 -7 58 48
77 185 36 263 -34 66 -104 94 -161 66z"/>
<path d="M2630 1245 l0 -65 44 0 c80 0 123 63 76 110 -15 15 -33 20 -70 20
l-50 0 0 -65z"/>
<path d="M2630 1011 l0 -81 34 0 c46 0 94 18 106 40 6 10 10 32 10 49 0 39
-34 62 -101 69 l-49 5 0 -82z"/>
<path d="M2187 560 c-11 -34 -27 -98 -27 -109 0 -6 16 -11 35 -11 19 0 35 1
35 3 -5 33 -39 128 -43 117z"/>
</g>
</svg>
